<svg viewBox="0 0 401 247" fill="none" xmlns="http://www.w3.org/2000/svg">
<path d="M37.8301 84.2275C26.0328 84.2275 16.8309 80.9636 10.2244 74.4357C3.69654 67.9079 0.432617 58.588 0.432617 46.4761V0.230652H19.5443V45.7683C19.5443 60.5542 25.6789 67.9472 37.9481 67.9472C43.9254 67.9472 48.487 66.1776 51.6329 62.6384C54.7789 59.0206 56.3518 53.3972 56.3518 45.7683V0.230652H75.2275V46.4761C75.2275 58.588 71.9243 67.9079 65.3178 74.4357C58.79 80.9636 49.6274 84.2275 37.8301 84.2275Z" fill="#77D14D"/>
<path d="M169.852 0.230652V82.8118H154.162L112.989 32.6733V82.8118H94.1134V0.230652H109.922L150.976 50.3692V0.230652H169.852Z" fill="#77D14D"/>
<path d="M189.39 0.230652H208.502V82.8118H189.39V0.230652Z" fill="#77D14D"/>
<path d="M245.206 15.8031H218.78V0.230652H290.744V15.8031H264.318V82.8118H245.206V15.8031Z" fill="#77D14D"/>
<path d="M360.794 61.0233C359.299 65.7422 356.783 69.4387 353.243 72.1128C349.783 74.7868 345.496 76.1238 340.384 76.1238C333.149 76.1238 327.565 73.2925 323.632 67.6298C319.778 62.0457 317.851 53.8663 317.851 43.0914L317.851 0.385128L400.433 0.385132L400.433 40.7319C400.433 50.799 398.506 58.5065 394.652 63.8546C390.798 69.2814 385.568 71.9948 378.962 71.9948C374.95 71.9948 371.372 71.0117 368.226 69.0455C365.08 67.1579 362.603 64.4838 360.794 61.0233ZM386.04 19.3788L366.574 19.3788L366.574 38.3725C366.574 43.0914 367.4 46.6699 369.052 49.108C370.703 51.5461 373.142 52.7652 376.366 52.7652C379.591 52.7652 381.989 51.5461 383.562 49.108C385.214 46.6699 386.04 43.0914 386.04 38.3725L386.04 19.3788ZM332.244 41.6757C332.244 46.7092 333.07 50.4844 334.722 53.0011C336.373 55.5965 338.929 56.8942 342.39 56.8942C349.232 56.8942 352.654 51.8214 352.654 41.6757L352.654 19.3788L332.244 19.3788L332.244 41.6757Z" fill="white"/>
<path d="M316.436 117.255C316.436 105.458 319.7 96.2558 326.228 89.6493C332.755 83.1214 342.075 79.8575 354.187 79.8575L400.433 79.8575L400.433 98.9691L354.895 98.9691C340.109 98.9691 332.716 105.104 332.716 117.373C332.716 123.35 334.486 127.912 338.025 131.058C341.643 134.204 347.266 135.777 354.895 135.777L400.433 135.777L400.433 154.652L354.187 154.652C342.075 154.652 332.755 151.349 326.228 144.743C319.7 138.215 316.436 129.052 316.436 117.255Z" fill="white"/>
<path d="M400.433 163.511L400.433 201.026C400.433 209.992 398.702 217.896 395.242 224.739C391.86 231.66 387.062 237.008 380.849 240.783C374.636 244.637 367.4 246.564 359.142 246.564C350.884 246.564 343.648 244.637 337.435 240.783C331.222 237.008 326.385 231.66 322.924 224.739C319.542 217.896 317.851 209.992 317.851 201.026L317.851 163.511L400.433 163.511ZM333.542 200.082C333.542 208.34 335.823 214.907 340.384 219.784C345.025 224.739 351.277 227.216 359.142 227.216C367.007 227.216 373.22 224.739 377.782 219.784C382.422 214.907 384.742 208.34 384.742 200.082L384.742 182.622L333.542 182.622L333.542 200.082Z" fill="white"/>
<path fill-rule="evenodd" clip-rule="evenodd" d="M272.158 126.844H19.5956V227.37H272.158V126.844ZM0.487305 107.736V246.479H291.266V107.736H0.487305Z" fill="white"/>
<circle cx="244.45" cy="154.52" r="11.8949" fill="#77D14D"/>
</svg>
